<svg width="1400" height="900" viewBox="0 0 1400 900" fill="none" xmlns="http://www.w3.org/2000/svg">
<defs>
  <linearGradient id="bg" x1="0" y1="0" x2="1400" y2="900" gradientUnits="userSpaceOnUse"><stop stop-color="#020617"/><stop offset=".58" stop-color="#172033"/><stop offset="1" stop-color="#7C2D12"/></linearGradient>
  <linearGradient id="glass" x1="0" y1="0" x2="1" y2="1"><stop stop-color="#fff" stop-opacity=".24"/><stop offset="1" stop-color="#fff" stop-opacity=".02"/></linearGradient>
  <filter id="blur"><feGaussianBlur stdDeviation="35"/></filter>
</defs>
<rect width="1400" height="900" fill="url(#bg)"/>
<circle cx="1120" cy="130" r="190" fill="#F97316" fill-opacity=".32" filter="url(#blur)"/>
<circle cx="290" cy="720" r="230" fill="#0EA5E9" fill-opacity=".16" filter="url(#blur)"/>
<path d="M0 740L180 590L390 690L610 440L770 540L990 300L1190 465L1400 270V900H0V740Z" fill="#0F172A" fill-opacity=".88"/>
<g opacity=".95">
<rect x="585" y="355" width="54" height="390" fill="#CBD5E1"/>
<rect x="604" y="265" width="16" height="480" fill="#F97316"/>
<path d="M612 268H1050V283H612V268Z" fill="#F97316"/>
<path d="M980 280H996V470H980V280Z" fill="#F97316"/>
<path d="M988 468L954 520H1022L988 468Z" fill="#FDBA74"/>
<path d="M614 268L735 318V334L614 283V268Z" fill="#EA580C"/>
</g>
<g opacity=".9">
<rect x="215" y="565" width="445" height="180" rx="8" fill="#E2E8F0"/>
<rect x="248" y="610" width="92" height="135" fill="#334155"/>
<rect x="370" y="610" width="92" height="135" fill="#334155"/>
<rect x="492" y="610" width="135" height="135" fill="#334155"/>
<path d="M185 565H688L630 505H242L185 565Z" fill="#F8FAFC"/>
</g>
<g opacity=".95">
<rect x="782" y="514" width="380" height="230" rx="12" fill="#F8FAFC"/>
<rect x="820" y="554" width="95" height="190" fill="#1E293B"/>
<rect x="942" y="554" width="95" height="190" fill="#1E293B"/>
<rect x="1064" y="554" width="62" height="190" fill="#1E293B"/>
<path d="M760 515H1190L1140 462H816L760 515Z" fill="#FDBA74"/>
</g>
<g opacity=".75"><path d="M80 160H480" stroke="#fff" stroke-opacity=".25"/><path d="M80 190H370" stroke="#fff" stroke-opacity=".16"/><circle cx="105" cy="115" r="8" fill="#F97316"/><circle cx="135" cy="115" r="8" fill="#0EA5E9"/><circle cx="165" cy="115" r="8" fill="#10B981"/></g>
<rect x="65" y="90" width="550" height="165" rx="28" fill="url(#glass)" stroke="#fff" stroke-opacity=".18"/>
<text x="105" y="155" fill="#fff" font-family="Arial, sans-serif" font-size="34" font-weight="800">NĂNG LỰC THI CÔNG THỰC CHIẾN</text>
<text x="105" y="205" fill="#CBD5E1" font-family="Arial, sans-serif" font-size="23" font-weight="600">Dữ liệu sống · Bản đồ GIS · Quản trị số</text>
</svg>
