<svg width="960" height="600" viewBox="0 0 960 600" xmlns="http://www.w3.org/2000/svg">
<defs><linearGradient id="g" x1="0" y1="0" x2="960" y2="600"><stop stop-color="#0F172A"/><stop offset="1" stop-color="#9A3412"/></linearGradient></defs>
<rect width="960" height="600" fill="url(#g)"/><circle cx="780" cy="100" r="150" fill="#F97316" opacity=".28"/><path d="M0 470L210 300L360 390L570 185L760 350L960 230V600H0Z" fill="#020617" opacity=".8"/>
<rect x="120" y="315" width="480" height="180" rx="12" fill="#F8FAFC" opacity=".92"/><path d="M90 315H645L570 245H170L90 315Z" fill="#FDBA74"/><rect x="180" y="355" width="110" height="140" fill="#334155"/><rect x="330" y="355" width="110" height="140" fill="#334155"/><rect x="480" y="355" width="80" height="140" fill="#334155"/>
<path d="M670 145V470" stroke="#F97316" stroke-width="18"/><path d="M680 150H890" stroke="#F97316" stroke-width="18"/><path d="M830 150V315" stroke="#F97316" stroke-width="14"/><path d="M830 315L805 350H855L830 315Z" fill="#FDBA74"/>
</svg>
